#Comment line ignore any data following # character 
#Hierarchical Translation and Rotation (.htr) file 
[Header]	
#Header keywords are followed by a single value 
FileType HTR		#Single word string
DataType HTRS		#Translation followed by rotation and scale data
FileVersion 1		#integer
NumSegments 25		#integer
NumFrames 4		#integer
DataFrameRate 30		#integer, data frame rate in this file
EulerRotationOrder ZYX
CalibrationUnits mm
RotationUnits Degrees
GlobalAxisofGravity Y
BoneLengthAxis Y
ScaleFactor 1.00
[SegmentNames&Hierarchy]
#CHILD	PARENT
BN_Tick_Root GLOBAL
BN_Torso BN_Tick_Root
BN_L_Leg_Front01 BN_Torso
BN_L_Leg_Rear01 BN_Torso
BN_MetalTop BN_Torso
BN_Neck BN_Torso
BN_R_Leg_Front01 BN_Torso
BN_R_Leg_Rear01 BN_Torso
BN_Sack BN_Torso
BN_L_Leg_Front02 BN_L_Leg_Front01
BN_L_Leg_Front03 BN_L_Leg_Front02
BN_L_Leg_Rear02 BN_L_Leg_Rear01
BN_L_Leg_Rear03 BN_L_Leg_Rear02
BN_Head BN_Neck
BN_Needle BN_Head
BN_R_Leg_Front02 BN_R_Leg_Front01
BN_R_Leg_Front03 BN_R_Leg_Front02
BN_R_Leg_Rear02 BN_R_Leg_Rear01
BN_R_Leg_Rear03 BN_R_Leg_Rear02
BN_SackDef01 BN_Sack
BN_SackDef02 BN_Sack
BN_SackDef03 BN_Sack
BN_SackDef04 BN_Sack
BN_SackDef05 BN_Sack
BN_SackDef06 BN_Sack
[BasePosition]
#SegmentName Tx, Ty, Tz, Rx, Ry, Rz, BoneLength
BN_Tick_Root 0.000000 0.000000 0.000000 -90.000000 0.000000 0.000000 10.000000 
BN_Torso 0.000000 0.000000 0.000000 0.000000 0.000000 0.000000 10.000000 
BN_L_Leg_Front01 0.000000 0.000000 0.000000 0.000000 0.000000 0.000000 10.000000 
BN_L_Leg_Rear01 0.000000 0.000000 0.000000 0.000000 0.000000 0.000000 10.000000 
BN_MetalTop 0.000000 0.000000 0.000000 0.000000 0.000000 0.000000 10.000000 
BN_Neck 0.000000 0.000000 0.000000 0.000000 0.000000 0.000000 10.000000 
BN_R_Leg_Front01 0.000000 0.000000 0.000000 0.000000 0.000000 0.000000 10.000000 
BN_R_Leg_Rear01 0.000000 0.000000 0.000000 0.000000 0.000000 0.000000 10.000000 
BN_Sack 0.000000 0.000000 0.000000 0.000000 0.000000 0.000000 10.000000 
BN_L_Leg_Front02 0.000000 0.000000 0.000000 0.000000 0.000000 0.000000 10.000000 
BN_L_Leg_Front03 0.000000 0.000000 0.000000 0.000000 0.000000 0.000000 10.000000 
BN_L_Leg_Rear02 0.000000 0.000000 0.000000 0.000000 0.000000 0.000000 10.000000 
BN_L_Leg_Rear03 0.000000 0.000000 0.000000 0.000000 0.000000 0.000000 10.000000 
BN_Head 0.000000 0.000000 0.000000 0.000000 0.000000 0.000000 10.000000 
BN_Needle 0.000000 0.000000 0.000000 0.000000 0.000000 0.000000 10.000000 
BN_R_Leg_Front02 0.000000 0.000000 0.000000 0.000000 0.000000 0.000000 10.000000 
BN_R_Leg_Front03 0.000000 0.000000 0.000000 0.000000 0.000000 0.000000 10.000000 
BN_R_Leg_Rear02 0.000000 0.000000 0.000000 0.000000 0.000000 0.000000 10.000000 
BN_R_Leg_Rear03 0.000000 0.000000 0.000000 0.000000 0.000000 0.000000 10.000000 
BN_SackDef01 0.000000 0.000000 0.000000 0.000000 0.000000 0.000000 10.000000 
BN_SackDef02 0.000000 0.000000 0.000000 0.000000 0.000000 0.000000 10.000000 
BN_SackDef03 0.000000 0.000000 0.000000 0.000000 0.000000 0.000000 10.000000 
BN_SackDef04 0.000000 0.000000 0.000000 0.000000 0.000000 0.000000 10.000000 
BN_SackDef05 0.000000 0.000000 0.000000 0.000000 0.000000 0.000000 10.000000 
BN_SackDef06 0.000000 0.000000 0.000000 0.000000 0.000000 0.000000 10.000000 
#Beginning of Data. Separated by tabs
#Fr	Tx	Ty	Tz	Rx	Ry	Rz	SF
[BN_Tick_Root]
189 -669.114441 1881.173340 -0.001330 0.000000 -0.000000 -120.036491 1996.629028
190 -669.114441 1881.173340 -0.001330 0.000000 -0.000000 -120.066132 1996.629028
191 -669.114441 1881.173340 -0.001330 0.000000 -0.000000 -120.095779 1996.629028
192 -669.114441 1881.173340 -0.001330 0.000000 -0.000000 -120.095779 1996.629028
[BN_Torso]
189 46.607399 43.824142 443.170959 -27.209412 3.258201 20.929115 447.764801
190 31.636499 45.258591 443.499695 -25.432924 -4.705780 13.048760 446.924133
191 16.667345 46.692867 443.828491 -23.655363 -12.666604 5.164604 446.589020
192 9.874344 47.334076 444.473328 -22.848820 -16.280050 1.570437 447.095703
[BN_L_Leg_Front01]
189 -68.477791 10.734189 -26.804373 -51.552513 40.101791 92.922852 74.316254
190 -68.477791 10.734189 -26.804373 -43.469513 42.292313 105.130516 74.316254
191 -68.477791 10.734189 -26.804373 -35.217113 42.529362 117.774254 74.316254
192 -68.477791 10.734189 -26.804373 -31.654175 42.024647 123.459320 74.316254
[BN_L_Leg_Rear01]
189 -72.133743 -73.994843 -18.268616 -62.160583 62.786350 98.001747 104.939293
190 -72.133743 -73.994843 -18.268616 -72.717224 66.967117 118.725601 104.939293
191 -72.133743 -73.994843 -18.268616 -75.121338 70.604164 141.894470 104.939293
192 -72.133743 -73.994843 -18.268616 -74.415924 71.735840 151.908981 104.939293
[BN_MetalTop]
189 0.000008 13.737477 26.403606 90.002541 -19.812994 -89.999672 29.763546
190 0.000008 13.737477 26.403606 89.998573 -12.929121 -90.001572 29.763546
191 0.000008 13.737477 26.403606 89.998589 -12.931485 -90.001587 29.763546
192 0.000008 13.737477 26.403606 89.998947 -23.946434 -89.997581 29.763546
[BN_Neck]
189 0.000014 95.233284 10.002091 -89.999924 -47.946640 89.998695 95.757088
190 0.000014 95.233284 10.002091 -89.999924 -47.946640 89.998695 95.757088
191 0.000014 95.233284 10.002091 -89.999931 -47.946899 89.998695 95.757088
192 0.000014 95.233284 10.002091 -89.996986 -49.158756 89.995766 95.757088
[BN_R_Leg_Front01]
189 68.477768 10.734107 -26.804314 77.805199 42.678772 47.846001 74.316193
190 68.477768 10.734107 -26.804314 81.266602 46.520092 59.450649 74.316193
191 68.477768 10.734107 -26.804314 87.009903 48.835945 72.390968 74.316193
192 68.477768 10.734107 -26.804314 90.255661 49.365864 78.611931 74.316193
[BN_R_Leg_Rear01]
189 72.133751 -73.994873 -18.268644 66.986282 70.986198 55.636517 104.939331
190 72.133751 -73.994873 -18.268644 58.093307 71.489891 69.419060 104.939331
191 72.133751 -73.994873 -18.268644 51.918304 71.268562 83.829727 104.939331
192 72.133751 -73.994873 -18.268644 50.028179 70.743629 90.201019 104.939331
[BN_Sack]
189 -0.000000 -78.024918 33.657791 89.999245 -14.639254 -90.000534 84.974907
190 -0.000000 -78.024918 33.657791 89.823769 -9.973115 -89.030540 84.974907
191 -0.000000 -78.024918 33.657791 89.830727 -4.212817 -87.860542 84.974907
192 -0.000000 -78.024918 33.657791 90.005905 0.131083 -86.892906 84.974907
[BN_L_Leg_Front02]
189 142.805023 -0.000015 -0.000104 0.081182 0.589251 -120.709442 142.805023
190 142.805023 -0.000015 -0.000104 0.027451 0.684381 -129.806549 142.805023
191 142.805023 -0.000015 -0.000104 -0.042417 0.789627 -139.219910 142.805023
192 142.805023 -0.000015 -0.000104 -0.077269 0.826794 -143.146866 142.805023
[BN_L_Leg_Front03]
189 124.143021 -0.000045 0.000007 0.353517 -0.352871 128.443665 124.143021
190 124.143021 -0.000045 0.000007 0.355503 -0.315870 135.489044 124.143021
191 124.143021 -0.000045 0.000007 0.354016 -0.277020 141.837570 124.143021
192 124.143021 -0.000045 0.000007 0.351503 -0.262480 144.225418 124.143021
[BN_L_Leg_Rear02]
189 139.939041 0.000075 -0.000022 -0.013325 -0.244491 123.790039 139.939041
190 139.939041 0.000075 -0.000022 -0.038102 -0.276320 129.830078 139.939041
191 139.939041 0.000075 -0.000022 -0.049592 -0.270282 133.800735 139.939041
192 139.939041 0.000075 -0.000022 -0.049708 -0.247930 134.471710 139.939041
[BN_L_Leg_Rear03]
189 142.839615 0.000179 -0.000060 0.000997 -0.002125 -140.295181 142.839615
190 142.839615 0.000179 -0.000060 0.001073 -0.002088 -144.391678 142.839615
191 142.839615 0.000179 -0.000060 0.001117 -0.002064 -146.839996 142.839615
192 142.839615 0.000179 -0.000060 0.001124 -0.002060 -147.236938 142.839615
[BN_Head]
189 57.062447 -0.000030 0.000000 -13.710093 -2.698329 32.683331 57.062447
190 57.062447 -0.000030 0.000000 -13.710093 -2.698329 32.683331 57.062447
191 57.062447 -0.000030 0.000000 -13.709895 -2.698285 32.683502 57.062447
192 57.062447 -0.000030 0.000000 -12.777499 -2.499445 33.493824 57.062447
[BN_Needle]
189 39.050316 209.508408 -0.000069 0.000003 0.000030 87.896805 213.116638
190 39.050323 209.508408 -0.000068 0.000003 0.000030 87.896805 213.116638
191 39.050232 209.505829 -0.000067 0.000003 0.000030 87.896805 213.114090
192 38.603962 197.354050 -0.000086 0.000003 0.000030 87.896805 201.094223
[BN_R_Leg_Front02]
189 142.804947 -0.000060 0.000060 0.002362 0.739435 134.436920 142.804947
190 142.804947 -0.000060 0.000060 -0.054869 0.651982 125.994659 142.804947
191 142.804947 -0.000060 0.000060 -0.098636 0.557085 117.553581 142.804947
192 142.804947 -0.000060 0.000060 -0.117281 0.506604 113.496353 142.804947
[BN_R_Leg_Front03]
189 124.143005 -0.000060 -0.000156 -0.353120 -0.296861 -138.726151 124.143005
190 124.143005 -0.000060 -0.000156 -0.352454 -0.327962 -132.680573 124.143005
191 124.143005 -0.000060 -0.000156 -0.352245 -0.366029 -125.771477 124.143005
192 124.143005 -0.000060 -0.000156 -0.353483 -0.377275 -122.152824 124.143005
[BN_R_Leg_Rear02]
189 139.939011 -0.000149 0.000015 0.006006 -0.243938 -121.026062 139.939011
190 139.939011 -0.000149 0.000015 -0.010431 -0.263376 -116.240753 139.939011
191 139.939011 -0.000149 0.000015 -0.031816 -0.239009 -110.301292 139.939011
192 139.939011 -0.000149 0.000015 -0.038556 -0.238014 -107.063469 139.939011
[BN_R_Leg_Rear03]
189 142.839417 0.000075 0.000119 0.002142 -0.000960 138.264236 142.839417
190 142.839417 0.000075 0.000119 0.002172 -0.000889 134.502960 142.839417
191 142.839417 0.000075 0.000119 0.002210 -0.000791 129.369507 142.839417
192 142.839417 0.000075 0.000119 0.002230 -0.000732 126.352760 142.839417
[BN_SackDef01]
189 249.782272 -3.760844 42.949425 -128.408218 -44.374973 -11.740845 253.475800
190 249.782272 -3.760844 42.949425 -128.408218 -44.374973 -11.740845 253.475800
191 249.782272 -3.760844 42.949425 -128.408218 -44.374973 -11.740845 253.475800
192 249.782272 -3.760844 42.949425 -128.408218 -44.374973 -11.740845 253.475800
[BN_SackDef02]
189 138.789795 -62.131748 45.674385 32.077126 -27.375721 -88.781525 158.773758
190 138.789795 -62.131748 45.674385 32.077126 -27.375721 -88.781525 158.773758
191 138.789795 -62.131748 45.674385 32.077126 -27.375721 -88.781525 158.773758
192 138.789795 -62.131748 45.674385 32.077126 -27.375721 -88.781525 158.773758
[BN_SackDef03]
189 249.782272 -3.760785 -42.949661 18.144459 44.375008 -11.740894 253.475845
190 249.782272 -3.760785 -42.949661 18.144459 44.375008 -11.740894 253.475845
191 249.782272 -3.760785 -42.949661 18.144459 44.375008 -11.740894 253.475845
192 249.782272 -3.760785 -42.949661 18.144459 44.375008 -11.740894 253.475845
[BN_SackDef04]
189 138.789780 -62.131645 -45.674473 146.059982 27.375723 -88.781555 158.773743
190 138.789780 -62.131645 -45.674473 146.059982 27.375723 -88.781555 158.773743
191 138.789780 -62.131645 -45.674473 146.059982 27.375723 -88.781555 158.773743
192 138.789780 -62.131645 -45.674473 146.059982 27.375723 -88.781555 158.773743
[BN_SackDef05]
189 118.790161 46.167137 -63.831196 0.155741 51.314110 90.605110 142.537460
190 118.790161 46.167137 -63.831196 0.155741 51.314110 90.605110 142.537460
191 118.790161 46.167137 -63.831196 0.155741 51.314110 90.605110 142.537460
192 118.790161 46.167137 -63.831196 0.155741 51.314110 90.605110 142.537460
[BN_SackDef06]
189 118.790207 46.167194 63.831219 152.058487 -51.314072 90.605019 142.537537
190 118.790207 46.167194 63.831219 152.058487 -51.314072 90.605019 142.537537
191 118.790207 46.167194 63.831219 152.058487 -51.314072 90.605019 142.537537
192 118.790207 46.167194 63.831219 152.058487 -51.314072 90.605019 142.537537
